<?xml version="1.0" encoding="UTF-8"?>
<svg version="1.1" xmlns="http://www.w3.org/2000/svg" width="512" height="512">
<path d="M0 0 C2.33942916 -0.00407385 4.67885638 -0.00942026 7.01828003 -0.01593018 C13.32404752 -0.02951281 19.62966643 -0.02434274 25.93543625 -0.01479292 C31.88939337 -0.00792619 37.84333745 -0.01319158 43.79729426 -0.0175745 C56.30776749 -0.02609661 68.81817441 -0.01634449 81.32863677 -0.0001734 C92.02609048 0.01322688 102.72344648 0.01089789 113.42089844 -0.00292969 C125.89147387 -0.01904203 138.36199141 -0.02527294 150.8325758 -0.0160929 C157.41632653 -0.0113765 164.00002308 -0.01073156 170.58377075 -0.02070236 C176.77604938 -0.02942679 182.96814514 -0.0232508 189.16040421 -0.00601959 C191.42053042 -0.00208384 193.68067228 -0.00313823 195.94079208 -0.00980759 C212.27500232 -0.05353036 227.56449934 1.20287177 243.24609375 6.07568359 C244.07399414 6.3305957 244.90189453 6.58550781 245.75488281 6.84814453 C284.76412686 19.27705099 317.12076031 46.83760938 336.12890625 83.02880859 C341.03183017 92.68262779 344.51668803 102.64161894 347.55859375 113.01318359 C347.80512695 113.84760986 348.05166016 114.68203613 348.30566406 115.54174805 C352.44076934 130.24482119 352.60195007 144.46620381 352.58325195 159.62548828 C352.58760529 161.9643266 352.5927905 164.30316349 352.59873962 166.64199829 C352.6120749 172.96449853 352.61271433 179.28693879 352.61017632 185.60945034 C352.60896658 191.57360935 352.61519651 197.53776013 352.62060978 203.50191584 C352.63145889 216.03906017 352.62933551 228.57617753 352.62322494 241.11332336 C352.61805985 252.54679816 352.62930514 263.98018766 352.64832316 275.4136456 C352.66776299 287.19226653 352.67594672 298.97084724 352.6721999 310.7494843 C352.67029693 317.34671431 352.67295634 323.94388093 352.68691444 330.54109955 C352.69956001 336.74973057 352.69748535 342.95819188 352.68450356 349.16682053 C352.68215271 351.43339726 352.68481828 353.69998619 352.69312668 355.96654892 C352.74871969 372.32381889 351.50081083 387.62186681 346.62109375 403.32568359 C346.36618164 404.15358398 346.11126953 404.98148437 345.84863281 405.83447266 C333.41972635 444.8437167 305.85916796 477.20035016 269.66796875 496.20849609 C260.03554624 501.10055319 250.09090219 504.58887465 239.74609375 507.63818359 C238.92004639 507.8847168 238.09399902 508.13125 237.24291992 508.38525391 C222.29613716 512.60531597 207.55580565 512.68204704 192.15722656 512.6628418 C189.83956743 512.66719606 187.52190974 512.67238158 185.20425415 512.67832947 C178.9437273 512.69165464 172.68326107 512.69230532 166.42272282 512.68976617 C160.51435636 512.6885556 154.60599987 512.69478829 148.69763646 512.70019963 C136.277773 512.71104493 123.85793678 512.70892715 111.43807182 512.70281478 C100.11526677 512.69764984 88.79254787 512.70889528 77.46975985 512.727913 C65.80071356 512.74735969 54.13170787 512.75553539 42.46264529 512.75178975 C35.92854981 512.74998455 29.39453322 512.75253632 22.86045074 512.76650429 C16.7108987 512.77915973 10.56151791 512.77706604 4.41196823 512.7640934 C2.16838648 512.76174469 -0.07520761 512.76440027 -2.31877518 512.77271652 C-18.89220411 512.82967016 -34.77608489 511.70264174 -50.69140625 506.70068359 C-51.51479492 506.44577148 -52.33818359 506.19085938 -53.18652344 505.92822266 C-92.1715179 493.44049194 -124.50065693 465.94430961 -143.51171875 429.74755859 C-148.41464267 420.0937394 -151.89950053 410.13474825 -154.94140625 399.76318359 C-155.31120605 398.51154419 -155.31120605 398.51154419 -155.68847656 397.23461914 C-159.82358184 382.53154599 -159.98476257 368.31016338 -159.96606445 353.15087891 C-159.97041779 350.81204059 -159.975603 348.4732037 -159.98155212 346.1343689 C-159.9948874 339.81186866 -159.99552683 333.4894284 -159.99298882 327.16691685 C-159.99177908 321.20275783 -159.99800901 315.23860706 -160.00342228 309.27445135 C-160.01427139 296.73730701 -160.01214801 284.20018965 -160.00603744 271.66304383 C-160.00087235 260.22956903 -160.01211764 248.79617953 -160.03113566 237.36272159 C-160.05057549 225.58410066 -160.05875922 213.80551995 -160.0550124 202.02688289 C-160.05310943 195.42965288 -160.05576884 188.83248626 -160.06972694 182.23526764 C-160.08237251 176.02663661 -160.08029785 169.81817531 -160.06731606 163.60954666 C-160.06496521 161.34296993 -160.06763078 159.07638099 -160.07593918 156.80981827 C-160.13153391 140.45204315 -158.88264676 125.15514282 -154.00390625 109.45068359 C-153.74971924 108.6235083 -153.49553223 107.79633301 -153.23364258 106.9440918 C-147.35208103 88.45792663 -138.46526777 71.06086237 -125.69140625 56.38818359 C-124.98242188 55.56962891 -124.2734375 54.75107422 -123.54296875 53.90771484 C-121.29574025 51.36479838 -119.00590701 48.86995079 -116.69140625 46.38818359 C-115.95535156 45.58638672 -115.21929687 44.78458984 -114.4609375 43.95849609 C-84.38507058 12.42165741 -42.47635436 -0.12534299 0 0 Z " fill="#FE354D" transform="translate(159.69140625,-0.38818359375)"/>
<path d="M0 0 C0.72977051 -0.00988449 1.45954102 -0.01976898 2.21142578 -0.029953 C34.14575877 -0.37300752 63.16754228 3.19124649 87.46484375 25.92578125 C101.97422987 41.18890172 109.65355 60.50224346 109.46484375 81.48828125 C109.45142944 83.15914795 109.45142944 83.15914795 109.43774414 84.86376953 C109.09317701 109.25483736 100.47416956 132.81927269 84.21484375 151.23828125 C83.50457031 152.08003906 82.79429687 152.92179688 82.0625 153.7890625 C71.25614027 166.30468827 57.09301605 176.23556943 41.21484375 181.23828125 C40.27511719 181.53605469 39.33539063 181.83382812 38.3671875 182.140625 C15.55740793 188.15486822 -7.77218231 184.09466623 -28.78515625 174.23828125 C-28.91873535 175.09010986 -29.05231445 175.94193848 -29.18994141 176.81958008 C-29.78343753 180.22840955 -30.51839717 183.56910361 -31.30859375 186.9375 C-31.61096201 188.24407472 -31.91303479 189.55071785 -32.21484375 190.85742188 C-32.68122151 192.86897772 -33.1493764 194.8800408 -33.62304688 196.88989258 C-34.74455083 201.65926709 -35.79907568 206.43903131 -36.78515625 211.23828125 C-37.01153778 212.33435699 -37.01153778 212.33435699 -37.24249268 213.45257568 C-40.05173654 227.51778919 -39.95777588 241.09971432 -39.27099609 255.38232422 C-38.54653733 271.40453012 -38.54653733 271.40453012 -41.6550293 276.0065918 C-43.98299352 277.85845242 -46.05806264 279.07119055 -48.78515625 280.23828125 C-49.58920898 280.64949219 -50.39326172 281.06070312 -51.22167969 281.484375 C-61.22973186 286.5044912 -73.34862649 288.64572925 -84.17578125 285.140625 C-93.53135882 280.73316069 -100.03358432 274.92984206 -103.78515625 265.23828125 C-104.08421875 264.51898438 -104.38328125 263.7996875 -104.69140625 263.05859375 C-117.62554396 225.57354649 -94.02543506 173.38566485 -82.22265625 138.48828125 C-68.18088089 102.30267743 -68.18088089 102.30267743 -64.78515625 64.23828125 C-66.29386989 61.93996048 -67.12698348 61.37986493 -69.80078125 60.8046875 C-76.46760795 60.79303221 -80.74451406 62.4467673 -85.64453125 66.9453125 C-94.96478285 76.69429567 -101.59523253 89.36167964 -107.78515625 101.23828125 C-108.77515625 101.23828125 -109.76515625 101.23828125 -110.78515625 101.23828125 C-111.62012271 75.4934821 -102.31396782 55.22351044 -85.890625 36.0234375 C-75.56222259 25.0199761 -62.45391409 17.31048187 -48.78515625 11.23828125 C-47.22087891 10.53251953 -47.22087891 10.53251953 -45.625 9.8125 C-31.52258703 3.93497821 -15.2827108 0.17016672 0 0 Z " fill="#FEEEF2" transform="translate(256.78515625,112.76171875)"/>
<path d="M0 0 C2.33942916 -0.00407385 4.67885638 -0.00942026 7.01828003 -0.01593018 C13.32404752 -0.02951281 19.62966643 -0.02434274 25.93543625 -0.01479292 C31.88939337 -0.00792619 37.84333745 -0.01319158 43.79729426 -0.0175745 C56.30776749 -0.02609661 68.81817441 -0.01634449 81.32863677 -0.0001734 C92.02609048 0.01322688 102.72344648 0.01089789 113.42089844 -0.00292969 C125.89147387 -0.01904203 138.36199141 -0.02527294 150.8325758 -0.0160929 C157.41632653 -0.0113765 164.00002308 -0.01073156 170.58377075 -0.02070236 C176.77604938 -0.02942679 182.96814514 -0.0232508 189.16040421 -0.00601959 C191.42053042 -0.00208384 193.68067228 -0.00313823 195.94079208 -0.00980759 C212.27500232 -0.05353036 227.56449934 1.20287177 243.24609375 6.07568359 C244.07399414 6.3305957 244.90189453 6.58550781 245.75488281 6.84814453 C284.76412686 19.27705099 317.12076031 46.83760938 336.12890625 83.02880859 C341.03183017 92.68262779 344.51668803 102.64161894 347.55859375 113.01318359 C347.80512695 113.84760986 348.05166016 114.68203613 348.30566406 115.54174805 C352.44076934 130.24482119 352.60195007 144.46620381 352.58325195 159.62548828 C352.58760529 161.9643266 352.5927905 164.30316349 352.59873962 166.64199829 C352.6120749 172.96449853 352.61271433 179.28693879 352.61017632 185.60945034 C352.60896658 191.57360935 352.61519651 197.53776013 352.62060978 203.50191584 C352.63145889 216.03906017 352.62933551 228.57617753 352.62322494 241.11332336 C352.61805985 252.54679816 352.62930514 263.98018766 352.64832316 275.4136456 C352.66776299 287.19226653 352.67594672 298.97084724 352.6721999 310.7494843 C352.67029693 317.34671431 352.67295634 323.94388093 352.68691444 330.54109955 C352.69956001 336.74973057 352.69748535 342.95819188 352.68450356 349.16682053 C352.68215271 351.43339726 352.68481828 353.69998619 352.69312668 355.96654892 C352.74871969 372.32381889 351.50081083 387.62186681 346.62109375 403.32568359 C346.36618164 404.15358398 346.11126953 404.98148437 345.84863281 405.83447266 C333.41972635 444.8437167 305.85916796 477.20035016 269.66796875 496.20849609 C260.03554624 501.10055319 250.09090219 504.58887465 239.74609375 507.63818359 C238.92004639 507.8847168 238.09399902 508.13125 237.24291992 508.38525391 C222.29613716 512.60531597 207.55580565 512.68204704 192.15722656 512.6628418 C189.83956743 512.66719606 187.52190974 512.67238158 185.20425415 512.67832947 C178.9437273 512.69165464 172.68326107 512.69230532 166.42272282 512.68976617 C160.51435636 512.6885556 154.60599987 512.69478829 148.69763646 512.70019963 C136.277773 512.71104493 123.85793678 512.70892715 111.43807182 512.70281478 C100.11526677 512.69764984 88.79254787 512.70889528 77.46975985 512.727913 C65.80071356 512.74735969 54.13170787 512.75553539 42.46264529 512.75178975 C35.92854981 512.74998455 29.39453322 512.75253632 22.86045074 512.76650429 C16.7108987 512.77915973 10.56151791 512.77706604 4.41196823 512.7640934 C2.16838648 512.76174469 -0.07520761 512.76440027 -2.31877518 512.77271652 C-18.89220411 512.82967016 -34.77608489 511.70264174 -50.69140625 506.70068359 C-51.51479492 506.44577148 -52.33818359 506.19085938 -53.18652344 505.92822266 C-92.1715179 493.44049194 -124.50065693 465.94430961 -143.51171875 429.74755859 C-148.41464267 420.0937394 -151.89950053 410.13474825 -154.94140625 399.76318359 C-155.31120605 398.51154419 -155.31120605 398.51154419 -155.68847656 397.23461914 C-159.82358184 382.53154599 -159.98476257 368.31016338 -159.96606445 353.15087891 C-159.97041779 350.81204059 -159.975603 348.4732037 -159.98155212 346.1343689 C-159.9948874 339.81186866 -159.99552683 333.4894284 -159.99298882 327.16691685 C-159.99177908 321.20275783 -159.99800901 315.23860706 -160.00342228 309.27445135 C-160.01427139 296.73730701 -160.01214801 284.20018965 -160.00603744 271.66304383 C-160.00087235 260.22956903 -160.01211764 248.79617953 -160.03113566 237.36272159 C-160.05057549 225.58410066 -160.05875922 213.80551995 -160.0550124 202.02688289 C-160.05310943 195.42965288 -160.05576884 188.83248626 -160.06972694 182.23526764 C-160.08237251 176.02663661 -160.08029785 169.81817531 -160.06731606 163.60954666 C-160.06496521 161.34296993 -160.06763078 159.07638099 -160.07593918 156.80981827 C-160.13153391 140.45204315 -158.88264676 125.15514282 -154.00390625 109.45068359 C-153.74971924 108.6235083 -153.49553223 107.79633301 -153.23364258 106.9440918 C-147.35208103 88.45792663 -138.46526777 71.06086237 -125.69140625 56.38818359 C-124.98242188 55.56962891 -124.2734375 54.75107422 -123.54296875 53.90771484 C-121.29574025 51.36479838 -119.00590701 48.86995079 -116.69140625 46.38818359 C-115.95535156 45.58638672 -115.21929687 44.78458984 -114.4609375 43.95849609 C-84.38507058 12.42165741 -42.47635436 -0.12534299 0 0 Z M-44.19140625 15.07568359 C-45.07594482 15.33696045 -45.9604834 15.5982373 -46.87182617 15.86743164 C-55.13573761 18.38798054 -62.96752461 21.5272252 -70.69140625 25.38818359 C-71.34415527 25.71125488 -71.9969043 26.03432617 -72.66943359 26.3671875 C-105.8245832 43.07815903 -131.07797705 73.7644966 -142.83984375 108.81005859 C-145.46861046 117.54626074 -147.19778433 126.3979115 -148.69140625 135.38818359 C-148.86629735 136.42523626 -149.04118845 137.46228893 -149.22137928 138.53076744 C-149.76401978 142.98410809 -149.83320714 147.31767497 -149.82511902 151.79824829 C-149.82738458 152.72610685 -149.82965013 153.6539654 -149.83198434 154.60994089 C-149.83829753 157.70872337 -149.83749669 160.80746181 -149.83666992 163.90625 C-149.83966314 166.13246721 -149.84306605 168.35868389 -149.84684753 170.5848999 C-149.85567654 176.62649067 -149.85802523 182.66806727 -149.85866332 188.70966387 C-149.85937461 192.48765109 -149.86151045 196.26563473 -149.86416054 200.04362106 C-149.87293406 212.55336875 -149.8775807 225.0631084 -149.87683006 237.57285853 C-149.87679011 238.24652029 -149.87675015 238.92018206 -149.87670898 239.61425781 C-149.8766681 240.28874943 -149.87662722 240.96324106 -149.8765851 241.65817182 C-149.87617907 252.577389 -149.88573879 263.49657163 -149.89984735 274.41577883 C-149.91424396 285.64725819 -149.92093296 296.87872126 -149.92025357 308.11021173 C-149.91999915 314.40781665 -149.92281971 320.70538248 -149.93343163 327.00297928 C-149.94314762 332.93078009 -149.94316781 338.85850472 -149.93591499 344.78630829 C-149.9348734 346.95458208 -149.9372066 349.1228607 -149.94327545 351.29112625 C-149.97180978 362.19758585 -149.86013248 372.66048547 -147.69140625 383.38818359 C-147.49160156 384.58572266 -147.29179687 385.78326172 -147.0859375 387.01708984 C-141.42356847 415.55694984 -127.71750061 439.60121939 -107.69140625 460.38818359 C-107.04945312 461.09330078 -106.4075 461.79841797 -105.74609375 462.52490234 C-88.72865106 480.68420807 -64.35519362 492.13844383 -40.69140625 498.38818359 C-39.61475645 498.71301822 -38.53810665 499.03785284 -37.4288311 499.37253094 C-23.78571795 503.08007414 -9.55038256 502.67148976 4.46533203 502.63110352 C6.65184587 502.63217878 8.83835943 502.63412109 11.02487183 502.63685608 C16.91726707 502.64166791 22.80958556 502.63409497 28.70197153 502.62390304 C34.89334418 502.61506171 41.08471485 502.61688115 47.27609253 502.61726379 C57.66731028 502.61632986 68.05849866 502.60768224 78.44970703 502.59399414 C90.43536067 502.5782633 102.42096517 502.57299651 114.40662968 502.57372969 C127.21109469 502.57440697 140.01554746 502.56745692 152.82000875 502.55828309 C156.49118312 502.5561597 160.1623555 502.555443 163.83353043 502.55504417 C169.61698439 502.55403399 175.40041179 502.54788262 181.18385696 502.53787804 C183.2968886 502.53497659 185.4099233 502.53372284 187.52295685 502.53430557 C208.94694995 502.74642951 208.94694995 502.74642951 229.99609375 499.26318359 C230.83422607 499.04509033 231.6723584 498.82699707 232.53588867 498.60229492 C258.95301516 491.489326 280.64904232 479.32813211 300.30859375 460.38818359 C301.01371094 459.74623047 301.71882813 459.10427734 302.4453125 458.44287109 C326.81195826 435.60840793 340.92864685 399.23689388 342.30859375 366.38818359 C342.48925564 359.09056695 342.45587041 351.78955938 342.45385742 344.49023438 C342.45685491 342.30726057 342.46025879 340.12428729 342.46403503 337.9413147 C342.47281749 332.04869253 342.47521066 326.15608491 342.47585082 320.26345682 C342.4765644 316.57368604 342.47870448 312.88391889 342.48134804 309.19414902 C342.49058118 296.29870115 342.49468532 283.40326357 342.49389648 270.5078125 C342.49329568 258.52336526 342.50385333 246.53897976 342.51964015 234.55454266 C342.53274875 224.23222523 342.53807902 213.90992246 342.53744107 203.58759677 C342.53718714 197.43699422 342.53998057 191.28643175 342.55061913 185.13583755 C342.56035663 179.34910751 342.56034081 173.56245542 342.55310249 167.7757225 C342.55206377 165.66352982 342.5543767 163.55133212 342.56046295 161.43914795 C342.60220293 145.93851931 342.12835709 130.85199839 337.62109375 115.88818359 C337.23026611 114.56355103 337.23026611 114.56355103 336.83154297 113.2121582 C329.8680079 90.36292975 317.69402378 70.75099015 301.30859375 53.38818359 C300.63570313 52.65083984 299.9628125 51.91349609 299.26953125 51.15380859 C276.57656033 27.18595167 240.80618582 11.57729777 207.91021419 10.29466975 C205.45896129 10.25800731 203.00947404 10.24998911 200.55795288 10.25447083 C199.62964775 10.25220527 198.70134261 10.24993971 197.74490702 10.2476055 C194.66244456 10.24132135 191.58002671 10.24209125 188.49755859 10.24291992 C186.27576644 10.2399249 184.0539748 10.23652159 181.83218384 10.23274231 C175.81536188 10.22393207 169.79855415 10.22156542 163.78172636 10.22092652 C160.01626279 10.22021423 156.2508028 10.21807648 152.48534012 10.21542931 C140.00851386 10.20666149 127.53169565 10.20200837 115.05486695 10.20275978 C114.04810088 10.20281971 114.04810088 10.20281971 113.02099609 10.20288086 C112.34898791 10.20292174 111.67697972 10.20296262 110.98460765 10.20300474 C100.10640699 10.20341075 89.22824101 10.19385023 78.35005037 10.17974249 C67.14897289 10.16533204 55.94790805 10.15865746 44.74682009 10.15933627 C38.47096173 10.15959032 32.19514263 10.15679062 25.91929245 10.14615822 C20.0111411 10.13642158 14.10306612 10.13643597 8.19491196 10.14367485 C6.03757108 10.14471387 3.88022531 10.14239884 1.72289276 10.13631439 C-13.90251153 10.09513135 -29.10593185 10.531175 -44.19140625 15.07568359 Z " fill="#960019" transform="translate(159.69140625,-0.38818359375)"/>
<path d="M0 0 C1.25490234 0.00064453 2.50980469 0.00128906 3.80273438 0.00195312 C35.14668918 0.14743822 64.09179441 7.01923804 86.71582031 29.82128906 C87.16022461 30.27213867 87.60462891 30.72298828 88.0625 31.1875 C88.75085938 31.86554688 89.43921875 32.54359375 90.1484375 33.2421875 C106.89023886 50.89304595 111.5730511 74.96334196 111.265625 98.421875 C110.41134684 129.98849469 95.2821394 157.94170529 72.75 179.4375 C61.93830514 188.86864846 50.6215846 195.54482024 37.0625 200.1875 C35.63550781 200.67863281 35.63550781 200.67863281 34.1796875 201.1796875 C13.17179465 207.92534117 -9.26096344 204.00630674 -29.9375 198.1875 C-30.30875 200.0746875 -30.30875 200.0746875 -30.6875 202 C-31.38680077 205.52647386 -32.12035536 209.04316414 -32.890625 212.5546875 C-33.06239258 213.34641357 -33.23416016 214.13813965 -33.41113281 214.95385742 C-33.74939453 216.5097672 -34.09212142 218.06471661 -34.44042969 219.6184082 C-37.89874134 235.61734603 -38.11632348 250.90948805 -37.74560547 267.18725586 C-37.68518659 270.032414 -37.64970534 272.87706198 -37.6171875 275.72265625 C-37.59026825 276.58520523 -37.563349 277.44775421 -37.53561401 278.33644104 C-37.49005704 283.81084856 -38.31246234 286.82735603 -41.9375 291.1875 C-47.66628805 296.82553497 -54.49673327 300.3286791 -61.9375 303.1875 C-62.60418701 303.44789063 -63.27087402 303.70828125 -63.95776367 303.9765625 C-69.4654402 305.99222453 -74.39794822 306.73443676 -80.25 306.6875 C-81.07669189 306.68250488 -81.90338379 306.67750977 -82.75512695 306.67236328 C-93.47886299 306.36898962 -101.94346531 302.19525768 -109.9375 295.1875 C-110.55367187 294.67574219 -111.16984375 294.16398437 -111.8046875 293.63671875 C-120.63056314 285.70100653 -123.88913137 273.67766806 -124.9375 262.1875 C-125.62804329 248.53345612 -125.00671077 235.50972864 -121.9375 222.1875 C-121.71707031 221.19137695 -121.49664062 220.19525391 -121.26953125 219.16894531 C-113.53271655 184.40444856 -102.4642581 150.25411881 -90.2578125 116.81640625 C-88.18430562 111.0449463 -86.50896167 105.2839543 -85.125 99.3125 C-84.90908203 98.44109375 -84.69316406 97.5696875 -84.47070312 96.671875 C-83.21779621 91.37386862 -82.71653192 86.62962807 -82.9375 81.1875 C-88.64902158 85.62820803 -92.22562933 90.13917664 -95.9375 96.3125 C-96.45441406 97.14910156 -96.97132813 97.98570312 -97.50390625 98.84765625 C-100.95717711 104.46463065 -104.27994594 110.14865088 -107.4375 115.9375 C-109.50530192 119.03920288 -111.37458797 120.87207594 -115.0859375 121.62109375 C-120.52038093 121.63062786 -123.64345552 120.8374378 -127.9375 117.1875 C-133.06387632 106.93474735 -128.09285881 87.977275 -124.87109375 77.828125 C-113.74303955 47.12497877 -91.01531562 25.91828625 -61.9375 12.1875 C-42.85934373 3.36443015 -20.86085326 -0.20294737 0 0 Z M-36.9375 14.1875 C-37.7114209 14.40180664 -38.4853418 14.61611328 -39.28271484 14.83691406 C-68.18208422 23.07332425 -94.16841586 40.17820975 -109.13623047 66.73144531 C-116.75253289 80.85262571 -119.45409515 95.25914945 -118.9375 111.1875 C-117.9475 111.1875 -116.9575 111.1875 -115.9375 111.1875 C-115.33164063 110.05054688 -114.72578125 108.91359375 -114.1015625 107.7421875 C-96.44515088 75.02338363 -96.44515088 75.02338363 -84.9375 71.1875 C-82.78125 70.984375 -82.78125 70.984375 -80.4375 70.9375 C-79.6640625 70.91171875 -78.890625 70.8859375 -78.09375 70.859375 C-75.9375 71.1875 -75.9375 71.1875 -74.1796875 72.28125 C-70.3334681 78.18362442 -72.86029567 89.85400008 -74.0625 96.4375 C-75.3085692 101.88682233 -76.79888065 107.19633144 -78.5 112.51953125 C-78.75709747 113.32882584 -79.01419495 114.13812042 -79.27908325 114.97193909 C-82.2394865 124.22748816 -85.35660899 133.43066267 -88.46020508 142.63891602 C-98.95675474 173.68216065 -98.95675474 173.68216065 -107.9375 205.1875 C-108.18773926 206.14188965 -108.43797852 207.0962793 -108.69580078 208.07958984 C-114.41027378 230.07301341 -121.41288508 259.53105048 -109.58203125 280.6015625 C-108.15634051 282.64263182 -106.67146315 284.40351868 -104.9375 286.1875 C-104.40125 286.73921875 -103.865 287.2909375 -103.3125 287.859375 C-95.65210216 295.02326558 -88.19741624 296.8893074 -77.78125 296.56640625 C-66.67818891 295.47189718 -55.92684383 291.17684383 -47.9375 283.1875 C-47.8102256 280.23587359 -47.8032155 277.37747026 -47.8828125 274.4296875 C-47.91177635 272.6001966 -47.93956224 270.77068677 -47.96630859 268.94116211 C-47.9829657 267.98096161 -47.9996228 267.02076111 -48.01678467 266.03146362 C-48.27925997 248.9851118 -47.84491125 232.85287854 -43.9375 216.1875 C-43.41459882 213.85303598 -42.8925054 211.51839092 -42.37109375 209.18359375 C-41.14065144 203.73539052 -39.86136796 198.30094751 -38.53833008 192.87451172 C-37.89382465 189.99217661 -37.39865237 187.10429543 -36.9375 184.1875 C-35.78894531 184.65800781 -34.64039063 185.12851562 -33.45703125 185.61328125 C-9.76454654 195.18923952 14.77577519 198.4326895 39.1875 188.9375 C65.44360093 177.18311309 84.76989981 155.98979432 95.0625 129.1875 C103.16387745 106.05987343 104.74003367 80.57709443 94.32617188 57.97094727 C90.77290711 50.62393907 86.5906107 44.22909134 81.0625 38.1875 C80.17691406 37.16462891 80.17691406 37.16462891 79.2734375 36.12109375 C63.3645454 18.82440468 38.76246964 11.05956437 15.90039062 9.96435547 C-1.91630385 9.27464622 -19.66602169 9.29111974 -36.9375 14.1875 Z " fill="#98031C" transform="translate(264.9375,102.8125)"/>
<path d="M0 0 C9.26193099 5.15596497 15.78825707 14.26683426 19.05859375 24.22265625 C22.84279546 39.40656935 18.8102594 56.49009878 10.93652344 69.79736328 C3.67833332 80.94140928 -6.19583212 89.90331268 -19.265625 93.42578125 C-26.80600173 94.58523248 -34.39721234 94.28901833 -42 94 C-41.50641119 86.4727707 -40.09853221 79.30001986 -38.45996094 71.95385742 C-38.28754883 71.17244385 -38.11513672 70.39103027 -37.9375 69.5859375 C-37.78152344 68.8954834 -37.62554687 68.2050293 -37.46484375 67.49365234 C-36.2214309 60.82336935 -35.83151318 54.32629484 -35.796875 47.55859375 C-35.79117493 46.67325455 -35.78547485 45.78791534 -35.77960205 44.87574768 C-35.77020462 43.00921808 -35.76363914 41.14267228 -35.75976562 39.27612305 C-35.75011037 36.46958194 -35.71905716 33.66379016 -35.6875 30.85742188 C-35.63234369 21.19576868 -36.11808913 12.23744641 -38.35253906 2.82055664 C-39 0 -39 0 -39 -3 C-27.58551102 -6.80482966 -10.75722072 -5.20824713 0 0 Z " fill="#98041D" transform="translate(278,164)"/>
<path d="M0 0 C10.1625484 -0.47145843 19.96869022 0.06386883 28 7 C34.90514395 15.43207996 37.63878456 23.74121068 37.34765625 34.6015625 C35.75879556 50.13312205 27.96088659 63.24996878 16 73 C9.50973617 77.06523319 4.54068034 78.23288576 -3 78 C-2.87882813 77.37174316 -2.75765625 76.74348633 -2.6328125 76.09619141 C0.36544298 59.89119712 1.38236848 44.19725329 1.3125 27.75 C1.30968018 26.82922668 1.30686035 25.90845337 1.30395508 24.95977783 C1.2913933 22.30112565 1.26819427 19.64288506 1.23828125 16.984375 C1.23073318 16.19572052 1.22318512 15.40706604 1.21540833 14.59451294 C1.13211607 9.66031543 0.68950025 4.88722775 0 0 Z " fill="#FD354D" transform="translate(251,170)"/>
</svg>
